<svg width="136" height="82" viewBox="0 0 136 82" fill="none" xmlns="http://www.w3.org/2000/svg">
<path d="M34.23 46L27.36 67H22.14L17.52 52.78L12.75 67H7.56L0.66 46H5.7L10.44 60.76L15.39 46H19.89L24.69 60.88L29.58 46H34.23ZM43.092 67.24C41.392 67.24 39.862 66.89 38.502 66.19C37.162 65.47 36.112 64.48 35.352 63.22C34.592 61.96 34.212 60.53 34.212 58.93C34.212 57.33 34.592 55.9 35.352 54.64C36.112 53.38 37.162 52.4 38.502 51.7C39.862 50.98 41.392 50.62 43.092 50.62C44.792 50.62 46.312 50.98 47.652 51.7C48.992 52.4 50.042 53.38 50.802 54.64C51.562 55.9 51.942 57.33 51.942 58.93C51.942 60.53 51.562 61.96 50.802 63.22C50.042 64.48 48.992 65.47 47.652 66.19C46.312 66.89 44.792 67.24 43.092 67.24ZM43.092 63.4C44.292 63.4 45.272 63 46.032 62.2C46.812 61.38 47.202 60.29 47.202 58.93C47.202 57.57 46.812 56.49 46.032 55.69C45.272 54.87 44.292 54.46 43.092 54.46C41.892 54.46 40.902 54.87 40.122 55.69C39.342 56.49 38.952 57.57 38.952 58.93C38.952 60.29 39.342 61.38 40.122 62.2C40.902 63 41.892 63.4 43.092 63.4ZM59.5402 52.99C60.1002 52.21 60.8502 51.62 61.7902 51.22C62.7502 50.82 63.8502 50.62 65.0902 50.62V54.94C64.5702 54.9 64.2202 54.88 64.0402 54.88C62.7002 54.88 61.6502 55.26 60.8902 56.02C60.1302 56.76 59.7502 57.88 59.7502 59.38V67H55.0702V50.86H59.5402V52.99ZM67.8729 44.74H72.5529V67H67.8729V44.74ZM93.3363 44.74V67H88.8663V65.14C87.7063 66.54 86.0263 67.24 83.8263 67.24C82.3063 67.24 80.9263 66.9 79.6863 66.22C78.4663 65.54 77.5063 64.57 76.8063 63.31C76.1063 62.05 75.7563 60.59 75.7563 58.93C75.7563 57.27 76.1063 55.81 76.8063 54.55C77.5063 53.29 78.4663 52.32 79.6863 51.64C80.9263 50.96 82.3063 50.62 83.8263 50.62C85.8863 50.62 87.4963 51.27 88.6563 52.57V44.74H93.3363ZM84.6363 63.4C85.8163 63.4 86.7963 63 87.5763 62.2C88.3563 61.38 88.7463 60.29 88.7463 58.93C88.7463 57.57 88.3563 56.49 87.5763 55.69C86.7963 54.87 85.8163 54.46 84.6363 54.46C83.4363 54.46 82.4463 54.87 81.6663 55.69C80.8863 56.49 80.4963 57.57 80.4963 58.93C80.4963 60.29 80.8863 61.38 81.6663 62.2C82.4463 63 83.4363 63.4 84.6363 63.4Z" fill="#FF005C"/>
<path d="M26.23 8V29H24.1V12.2L15.85 26.33H14.8L6.55 12.29V29H4.42V8H6.25L15.37 23.57L24.4 8H26.23ZM39.0723 29.15C37.5523 29.15 36.1823 28.81 34.9623 28.13C33.7423 27.43 32.7823 26.47 32.0823 25.25C31.3823 24.03 31.0323 22.65 31.0323 21.11C31.0323 19.57 31.3823 18.19 32.0823 16.97C32.7823 15.75 33.7423 14.8 34.9623 14.12C36.1823 13.44 37.5523 13.1 39.0723 13.1C40.5923 13.1 41.9623 13.44 43.1823 14.12C44.4023 14.8 45.3523 15.75 46.0323 16.97C46.7323 18.19 47.0823 19.57 47.0823 21.11C47.0823 22.65 46.7323 24.03 46.0323 25.25C45.3523 26.47 44.4023 27.43 43.1823 28.13C41.9623 28.81 40.5923 29.15 39.0723 29.15ZM39.0723 27.26C40.1923 27.26 41.1923 27.01 42.0723 26.51C42.9723 25.99 43.6723 25.26 44.1723 24.32C44.6723 23.38 44.9223 22.31 44.9223 21.11C44.9223 19.91 44.6723 18.84 44.1723 17.9C43.6723 16.96 42.9723 16.24 42.0723 15.74C41.1923 15.22 40.1923 14.96 39.0723 14.96C37.9523 14.96 36.9423 15.22 36.0423 15.74C35.1623 16.24 34.4623 16.96 33.9423 17.9C33.4423 18.84 33.1923 19.91 33.1923 21.11C33.1923 22.31 33.4423 23.38 33.9423 24.32C34.4623 25.26 35.1623 25.99 36.0423 26.51C36.9423 27.01 37.9523 27.26 39.0723 27.26ZM64.2515 13.22L57.2315 29H55.0415L48.0515 13.22H50.2715L56.1815 26.66L62.1515 13.22H64.2515ZM67.2513 13.22H69.3813V29H67.2513V13.22ZM68.3313 9.77C67.8913 9.77 67.5213 9.62 67.2213 9.32C66.9213 9.02 66.7713 8.66 66.7713 8.24C66.7713 7.84 66.9213 7.49 67.2213 7.19C67.5213 6.89 67.8913 6.74 68.3313 6.74C68.7713 6.74 69.1413 6.89 69.4413 7.19C69.7413 7.47 69.8913 7.81 69.8913 8.21C69.8913 8.65 69.7413 9.02 69.4413 9.32C69.1413 9.62 68.7713 9.77 68.3313 9.77ZM89.0479 21.77H75.8479C75.9679 23.41 76.5979 24.74 77.7379 25.76C78.8779 26.76 80.3179 27.26 82.0579 27.26C83.0379 27.26 83.9379 27.09 84.7579 26.75C85.5779 26.39 86.2879 25.87 86.8879 25.19L88.0879 26.57C87.3879 27.41 86.5079 28.05 85.4479 28.49C84.4079 28.93 83.2579 29.15 81.9979 29.15C80.3779 29.15 78.9379 28.81 77.6779 28.13C76.4379 27.43 75.4679 26.47 74.7679 25.25C74.0679 24.03 73.7179 22.65 73.7179 21.11C73.7179 19.57 74.0479 18.19 74.7079 16.97C75.3879 15.75 76.3079 14.8 77.4679 14.12C78.6479 13.44 79.9679 13.1 81.4279 13.1C82.8879 13.1 84.1979 13.44 85.3579 14.12C86.5179 14.8 87.4279 15.75 88.0879 16.97C88.7479 18.17 89.0779 19.55 89.0779 21.11L89.0479 21.77ZM81.4279 14.93C79.9079 14.93 78.6279 15.42 77.5879 16.4C76.5679 17.36 75.9879 18.62 75.8479 20.18H87.0379C86.8979 18.62 86.3079 17.36 85.2679 16.4C84.2479 15.42 82.9679 14.93 81.4279 14.93ZM97.6434 29.15C96.3634 29.15 95.1334 28.97 93.9534 28.61C92.7934 28.23 91.8834 27.76 91.2234 27.2L92.1834 25.52C92.8434 26.04 93.6734 26.47 94.6734 26.81C95.6734 27.13 96.7134 27.29 97.7934 27.29C99.2334 27.29 100.293 27.07 100.973 26.63C101.673 26.17 102.023 25.53 102.023 24.71C102.023 24.13 101.833 23.68 101.453 23.36C101.073 23.02 100.593 22.77 100.013 22.61C99.4334 22.43 98.6634 22.26 97.7034 22.1C96.4234 21.86 95.3934 21.62 94.6134 21.38C93.8334 21.12 93.1634 20.69 92.6034 20.09C92.0634 19.49 91.7934 18.66 91.7934 17.6C91.7934 16.28 92.3434 15.2 93.4434 14.36C94.5434 13.52 96.0734 13.1 98.0334 13.1C99.0534 13.1 100.073 13.24 101.093 13.52C102.113 13.78 102.953 14.13 103.613 14.57L102.683 16.28C101.383 15.38 99.8334 14.93 98.0334 14.93C96.6734 14.93 95.6434 15.17 94.9434 15.65C94.2634 16.13 93.9234 16.76 93.9234 17.54C93.9234 18.14 94.1134 18.62 94.4934 18.98C94.8934 19.34 95.3834 19.61 95.9634 19.79C96.5434 19.95 97.3434 20.12 98.3634 20.3C99.6234 20.54 100.633 20.78 101.393 21.02C102.153 21.26 102.803 21.67 103.343 22.25C103.883 22.83 104.153 23.63 104.153 24.65C104.153 26.03 103.573 27.13 102.413 27.95C101.273 28.75 99.6834 29.15 97.6434 29.15Z" fill="white"/>
</svg>
