<svg width="144" height="71" viewBox="0 0 144 71" fill="none" xmlns="http://www.w3.org/2000/svg">
<path d="M54.5508 38.144C52.9548 38.144 51.6768 37.844 50.7168 37.244C49.7568 36.632 49.2768 35.702 49.2768 34.454C49.2768 33.794 49.3908 33.29 49.6188 32.942C49.8468 32.594 50.1828 32.42 50.6268 32.42C50.9508 32.42 51.2148 32.504 51.4188 32.672C51.6228 32.84 51.7248 33.056 51.7248 33.32C51.7248 33.56 51.7068 33.77 51.6708 33.95C51.6708 33.998 51.6588 34.082 51.6348 34.202C51.6228 34.322 51.6168 34.448 51.6168 34.58C51.6168 35.12 51.8868 35.522 52.4268 35.786C52.9788 36.05 53.7468 36.182 54.7308 36.182C55.7508 36.182 56.5488 36.002 57.1248 35.642C57.7008 35.27 57.9888 34.754 57.9888 34.094C57.9888 33.686 57.8568 33.338 57.5928 33.05C57.3288 32.75 56.9988 32.504 56.6028 32.312C56.2068 32.108 55.6488 31.862 54.9288 31.574C54.0048 31.214 53.2488 30.872 52.6608 30.548C52.0848 30.224 51.5868 29.786 51.1668 29.234C50.7588 28.67 50.5548 27.974 50.5548 27.146C50.5548 26.282 50.7828 25.514 51.2388 24.842C51.7068 24.17 52.3728 23.648 53.2368 23.276C54.1128 22.904 55.1388 22.718 56.3148 22.718C57.1908 22.718 57.9948 22.85 58.7268 23.114C59.4588 23.366 60.0408 23.756 60.4728 24.284C60.9168 24.812 61.1388 25.46 61.1388 26.228C61.1388 26.984 61.0248 27.554 60.7968 27.938C60.5688 28.322 60.2328 28.514 59.7888 28.514C59.4768 28.514 59.2128 28.418 58.9968 28.226C58.7928 28.034 58.6908 27.806 58.6908 27.542C58.6908 27.314 58.7088 27.104 58.7448 26.912C58.7808 26.552 58.7988 26.324 58.7988 26.228C58.7988 25.724 58.5528 25.34 58.0608 25.076C57.5688 24.812 56.9568 24.68 56.2248 24.68C55.1928 24.68 54.4008 24.872 53.8488 25.256C53.3088 25.628 53.0388 26.156 53.0388 26.84C53.0388 27.296 53.1768 27.686 53.4528 28.01C53.7408 28.334 54.0948 28.604 54.5148 28.82C54.9348 29.036 55.5228 29.294 56.2788 29.594C57.1908 29.966 57.9228 30.302 58.4748 30.602C59.0268 30.902 59.4948 31.31 59.8788 31.826C60.2748 32.342 60.4728 32.978 60.4728 33.734C60.4728 35.15 59.9328 36.242 58.8528 37.01C57.7848 37.766 56.3508 38.144 54.5508 38.144ZM75.3494 32.528C75.3854 32.516 75.4454 32.51 75.5294 32.51C75.7094 32.51 75.8474 32.57 75.9434 32.69C76.0394 32.81 76.0874 32.972 76.0874 33.176C76.0874 33.548 76.0154 33.842 75.8714 34.058C75.7274 34.262 75.5114 34.412 75.2234 34.508C74.6714 34.688 74.0834 34.778 73.4594 34.778C72.9314 34.778 72.4334 34.706 71.9654 34.562C71.6174 35.126 71.2334 35.708 70.8134 36.308C70.3334 36.992 69.9194 37.46 69.5714 37.712C69.2354 37.964 68.8514 38.09 68.4194 38.09C67.9394 38.09 67.5734 37.904 67.3214 37.532C67.0814 37.16 66.9314 36.548 66.8714 35.696L66.7814 34.382C66.4094 35.39 66.0734 36.158 65.7734 36.686C65.4854 37.214 65.1914 37.58 64.8914 37.784C64.6034 37.988 64.2614 38.09 63.8654 38.09C63.3734 38.09 62.9834 37.898 62.6954 37.514C62.4194 37.13 62.2454 36.524 62.1734 35.696C62.0294 34.016 61.9574 32.546 61.9574 31.286V30.656C61.9694 30.26 62.0774 29.984 62.2814 29.828C62.4854 29.672 62.7914 29.594 63.1994 29.594C63.5114 29.594 63.7394 29.666 63.8834 29.81C64.0394 29.942 64.1174 30.17 64.1174 30.494C64.1174 31.874 64.2014 33.668 64.3694 35.876C65.1854 34.16 65.9354 32.372 66.6194 30.512C66.7514 30.152 66.9074 29.912 67.0874 29.792C67.2794 29.66 67.5074 29.594 67.7714 29.594C68.0954 29.594 68.3174 29.66 68.4374 29.792C68.5694 29.924 68.6354 30.158 68.6354 30.494C68.6354 31.874 68.7194 33.668 68.8874 35.876C69.6074 34.808 70.1474 33.956 70.5074 33.32C70.3274 32.972 70.2374 32.558 70.2374 32.078C70.2374 31.67 70.3274 31.274 70.5074 30.89C70.6874 30.506 70.9334 30.194 71.2454 29.954C71.5574 29.714 71.9114 29.594 72.3074 29.594C72.6554 29.594 72.9374 29.72 73.1534 29.972C73.3694 30.212 73.4774 30.566 73.4774 31.034C73.4774 31.574 73.3334 32.192 73.0454 32.888C73.5014 32.864 74.1074 32.774 74.8634 32.618L75.3494 32.528ZM82.5529 33.986C82.7089 33.986 82.8289 34.058 82.9129 34.202C83.0089 34.346 83.0569 34.544 83.0569 34.796C83.0569 35.276 82.9429 35.648 82.7149 35.912C82.2709 36.452 81.6409 36.95 80.8249 37.406C80.0209 37.862 79.1569 38.09 78.2329 38.09C76.9729 38.09 75.9949 37.748 75.2989 37.064C74.6029 36.38 74.2549 35.444 74.2549 34.256C74.2549 33.428 74.4289 32.66 74.7769 31.952C75.1249 31.232 75.6049 30.662 76.2169 30.242C76.8409 29.822 77.5429 29.612 78.3229 29.612C79.0189 29.612 79.5769 29.822 79.9969 30.242C80.4169 30.65 80.6269 31.208 80.6269 31.916C80.6269 32.744 80.3269 33.458 79.7269 34.058C79.1389 34.646 78.1369 35.114 76.7209 35.462C77.0209 36.014 77.5909 36.29 78.4309 36.29C78.9709 36.29 79.5829 36.104 80.2669 35.732C80.9629 35.348 81.5629 34.85 82.0669 34.238C82.2109 34.07 82.3729 33.986 82.5529 33.986ZM78.0169 31.376C77.5729 31.376 77.1949 31.634 76.8829 32.15C76.5829 32.666 76.4329 33.29 76.4329 34.022V34.058C77.1409 33.89 77.6989 33.638 78.1069 33.302C78.5149 32.966 78.7189 32.576 78.7189 32.132C78.7189 31.904 78.6529 31.724 78.5209 31.592C78.4009 31.448 78.2329 31.376 78.0169 31.376ZM89.6193 33.986C89.7753 33.986 89.8953 34.058 89.9793 34.202C90.0753 34.346 90.1233 34.544 90.1233 34.796C90.1233 35.276 90.0093 35.648 89.7813 35.912C89.3373 36.452 88.7073 36.95 87.8913 37.406C87.0873 37.862 86.2233 38.09 85.2993 38.09C84.0393 38.09 83.0613 37.748 82.3653 37.064C81.6693 36.38 81.3213 35.444 81.3213 34.256C81.3213 33.428 81.4953 32.66 81.8433 31.952C82.1913 31.232 82.6713 30.662 83.2833 30.242C83.9073 29.822 84.6093 29.612 85.3893 29.612C86.0853 29.612 86.6433 29.822 87.0633 30.242C87.4833 30.65 87.6933 31.208 87.6933 31.916C87.6933 32.744 87.3933 33.458 86.7933 34.058C86.2053 34.646 85.2033 35.114 83.7873 35.462C84.0873 36.014 84.6573 36.29 85.4973 36.29C86.0373 36.29 86.6493 36.104 87.3333 35.732C88.0293 35.348 88.6293 34.85 89.1333 34.238C89.2773 34.07 89.4393 33.986 89.6193 33.986ZM85.0833 31.376C84.6393 31.376 84.2613 31.634 83.9493 32.15C83.6493 32.666 83.4993 33.29 83.4993 34.022V34.058C84.2073 33.89 84.7653 33.638 85.1733 33.302C85.5813 32.966 85.7853 32.576 85.7853 32.132C85.7853 31.904 85.7193 31.724 85.5873 31.592C85.4673 31.448 85.2993 31.376 85.0833 31.376ZM91.6277 31.322C91.6037 31.922 91.5917 32.39 91.5917 32.726C91.5917 33.59 91.6337 34.268 91.7177 34.76C91.8137 35.24 91.9637 35.588 92.1677 35.804C92.3837 36.008 92.6777 36.11 93.0497 36.11C93.2417 36.11 93.4697 36.05 93.7337 35.93C93.9977 35.81 94.2377 35.654 94.4537 35.462C94.5857 35.342 94.7177 35.282 94.8497 35.282C94.9937 35.282 95.1077 35.366 95.1917 35.534C95.2877 35.69 95.3357 35.882 95.3357 36.11C95.3357 36.338 95.2877 36.56 95.1917 36.776C95.1077 36.992 94.9757 37.172 94.7957 37.316C94.1717 37.832 93.4637 38.09 92.6717 38.09C91.5317 38.09 90.6977 37.616 90.1697 36.668C89.6417 35.708 89.3777 34.46 89.3777 32.924C89.3777 32.396 89.3957 31.862 89.4317 31.322H88.7297C88.3697 31.322 88.1237 31.256 87.9917 31.124C87.8717 30.992 87.8117 30.782 87.8117 30.494C87.8117 29.822 88.0817 29.486 88.6217 29.486H89.6477C89.8517 28.166 90.1637 26.96 90.5837 25.868C91.0037 24.776 91.5077 23.906 92.0957 23.258C92.6957 22.61 93.3377 22.286 94.0217 22.286C94.5257 22.286 94.9217 22.508 95.2097 22.952C95.4977 23.396 95.6417 23.954 95.6417 24.626C95.6417 26.486 94.8617 28.106 93.3017 29.486H95.3177C95.5097 29.486 95.6477 29.528 95.7317 29.612C95.8157 29.696 95.8577 29.852 95.8577 30.08C95.8577 30.908 95.1797 31.322 93.8237 31.322H91.6277ZM93.5357 24.014C93.3557 24.014 93.1517 24.242 92.9237 24.698C92.7077 25.142 92.4977 25.766 92.2937 26.57C92.1017 27.362 91.9397 28.244 91.8077 29.216C92.5157 28.604 93.0437 27.92 93.3917 27.164C93.7517 26.396 93.9317 25.7 93.9317 25.076C93.9317 24.368 93.7997 24.014 93.5357 24.014Z" fill="#140018"/>
<path d="M76.1989 62.09C74.7709 62.09 73.5289 61.832 72.4729 61.316C71.4169 60.788 70.6069 60.044 70.0429 59.084C69.4789 58.124 69.1969 57.008 69.1969 55.736C69.1969 53.972 69.5269 52.406 70.1869 51.038C70.8589 49.67 71.7649 48.614 72.9049 47.87C74.0449 47.114 75.3109 46.736 76.7029 46.736C77.9989 46.736 78.9829 47.072 79.6549 47.744C80.3269 48.404 80.6629 49.28 80.6629 50.372C80.6629 51.104 80.5309 51.692 80.2669 52.136C80.0149 52.58 79.6489 52.802 79.1689 52.802C78.8329 52.802 78.5689 52.724 78.3769 52.568C78.1849 52.412 78.0889 52.184 78.0889 51.884C78.0889 51.776 78.1129 51.578 78.1609 51.29C78.2329 50.93 78.2689 50.642 78.2689 50.426C78.2689 49.334 77.6869 48.788 76.5229 48.788C75.7309 48.788 74.9749 49.046 74.2549 49.562C73.5349 50.078 72.9529 50.84 72.5089 51.848C72.0649 52.844 71.8429 54.032 71.8429 55.412C71.8429 56.852 72.2449 57.968 73.0489 58.76C73.8529 59.54 75.0409 59.93 76.6129 59.93C77.3929 59.93 78.1789 59.834 78.9709 59.642C79.7749 59.438 80.6629 59.132 81.6349 58.724C81.8149 58.652 81.9649 58.616 82.0849 58.616C82.2769 58.616 82.4209 58.688 82.5169 58.832C82.6129 58.976 82.6609 59.162 82.6609 59.39C82.6609 60.122 82.2649 60.662 81.4729 61.01C80.6209 61.382 79.7329 61.658 78.8089 61.838C77.8969 62.006 77.0269 62.09 76.1989 62.09ZM91.2388 57.986C91.3948 57.986 91.5148 58.058 91.5988 58.202C91.6948 58.346 91.7428 58.544 91.7428 58.796C91.7428 59.276 91.6288 59.648 91.4008 59.912C90.8488 60.548 90.2788 61.07 89.6908 61.478C89.1148 61.886 88.4548 62.09 87.7108 62.09C87.0988 62.09 86.6368 61.916 86.3248 61.568C86.0128 61.208 85.8568 60.692 85.8568 60.02C85.8568 59.684 85.9408 59.084 86.1088 58.22C86.2648 57.464 86.3428 56.942 86.3428 56.654C86.3428 56.462 86.2768 56.366 86.1448 56.366C85.9888 56.366 85.7668 56.57 85.4788 56.978C85.1908 57.374 84.9028 57.902 84.6148 58.562C84.3268 59.222 84.0928 59.918 83.9128 60.65C83.6848 61.61 83.1208 62.09 82.2208 62.09C81.8608 62.09 81.6208 61.964 81.5008 61.712C81.3928 61.448 81.3388 60.98 81.3388 60.308C81.3388 59.924 81.3448 59.618 81.3568 59.39L81.3748 57.95C81.3748 56.102 81.5608 54.176 81.9328 52.172C82.3168 50.168 82.8748 48.488 83.6068 47.132C84.3508 45.764 85.2388 45.08 86.2708 45.08C86.8228 45.08 87.2668 45.32 87.6028 45.8C87.9508 46.268 88.1248 46.88 88.1248 47.636C88.1248 48.848 87.7708 50.108 87.0628 51.416C86.3548 52.712 85.2028 54.23 83.6068 55.97C83.5708 56.594 83.5528 57.236 83.5528 57.896C83.9488 56.876 84.3868 56.048 84.8668 55.412C85.3588 54.764 85.8388 54.302 86.3068 54.026C86.7868 53.75 87.2248 53.612 87.6208 53.612C88.4008 53.612 88.7908 54.002 88.7908 54.782C88.7908 55.25 88.6588 56.096 88.3948 57.32C88.1668 58.364 88.0528 59.054 88.0528 59.39C88.0528 59.87 88.2268 60.11 88.5748 60.11C88.8148 60.11 89.0968 59.966 89.4208 59.678C89.7568 59.378 90.2008 58.898 90.7528 58.238C90.8968 58.07 91.0588 57.986 91.2388 57.986ZM85.8928 46.862C85.6768 46.862 85.4368 47.174 85.1728 47.798C84.9088 48.41 84.6508 49.244 84.3988 50.3C84.1588 51.344 83.9608 52.484 83.8048 53.72C84.5488 52.844 85.1608 51.89 85.6408 50.858C86.1328 49.826 86.3788 48.89 86.3788 48.05C86.3788 47.666 86.3368 47.372 86.2528 47.168C86.1688 46.964 86.0488 46.862 85.8928 46.862ZM98.3119 57.986C98.4679 57.986 98.5879 58.058 98.6719 58.202C98.7679 58.346 98.8159 58.544 98.8159 58.796C98.8159 59.276 98.7019 59.648 98.4739 59.912C98.0299 60.452 97.3999 60.95 96.5839 61.406C95.7799 61.862 94.9159 62.09 93.9919 62.09C92.7319 62.09 91.7539 61.748 91.0579 61.064C90.3619 60.38 90.0139 59.444 90.0139 58.256C90.0139 57.428 90.1879 56.66 90.5359 55.952C90.8839 55.232 91.3639 54.662 91.9759 54.242C92.5999 53.822 93.3019 53.612 94.0819 53.612C94.7779 53.612 95.3359 53.822 95.7559 54.242C96.1759 54.65 96.3859 55.208 96.3859 55.916C96.3859 56.744 96.0859 57.458 95.4859 58.058C94.8979 58.646 93.8959 59.114 92.4799 59.462C92.7799 60.014 93.3499 60.29 94.1899 60.29C94.7299 60.29 95.3419 60.104 96.0259 59.732C96.7219 59.348 97.3219 58.85 97.8259 58.238C97.9699 58.07 98.1319 57.986 98.3119 57.986ZM93.7759 55.376C93.3319 55.376 92.9539 55.634 92.6419 56.15C92.3419 56.666 92.1919 57.29 92.1919 58.022V58.058C92.8999 57.89 93.4579 57.638 93.8659 57.302C94.2739 56.966 94.4779 56.576 94.4779 56.132C94.4779 55.904 94.4119 55.724 94.2799 55.592C94.1599 55.448 93.9919 55.376 93.7759 55.376ZM98.6283 62.09C98.1723 62.09 97.8483 61.85 97.6563 61.37C97.4763 60.89 97.3863 60.122 97.3863 59.066C97.3863 57.506 97.6083 56.024 98.0523 54.62C98.1603 54.272 98.3343 54.02 98.5743 53.864C98.8263 53.696 99.1743 53.612 99.6183 53.612C99.8583 53.612 100.026 53.642 100.122 53.702C100.218 53.762 100.266 53.876 100.266 54.044C100.266 54.236 100.176 54.668 99.9963 55.34C99.8763 55.82 99.7803 56.24 99.7083 56.6C99.6363 56.96 99.5763 57.404 99.5283 57.932C99.9243 56.9 100.368 56.06 100.86 55.412C101.352 54.764 101.832 54.302 102.3 54.026C102.78 53.75 103.218 53.612 103.614 53.612C104.394 53.612 104.784 54.002 104.784 54.782C104.784 54.938 104.73 55.316 104.622 55.916C104.526 56.396 104.478 56.696 104.478 56.816C104.478 57.236 104.628 57.446 104.928 57.446C105.264 57.446 105.696 57.182 106.224 56.654C106.38 56.498 106.542 56.42 106.71 56.42C106.866 56.42 106.986 56.492 107.07 56.636C107.166 56.768 107.214 56.948 107.214 57.176C107.214 57.62 107.094 57.968 106.854 58.22C106.518 58.568 106.122 58.868 105.666 59.12C105.222 59.36 104.748 59.48 104.244 59.48C103.608 59.48 103.122 59.318 102.786 58.994C102.462 58.67 102.3 58.232 102.3 57.68C102.3 57.5 102.318 57.32 102.354 57.14C102.378 56.9 102.39 56.738 102.39 56.654C102.39 56.462 102.324 56.366 102.192 56.366C102.012 56.366 101.772 56.57 101.472 56.978C101.184 57.374 100.896 57.902 100.608 58.562C100.32 59.222 100.086 59.918 99.9063 60.65C99.7743 61.214 99.6183 61.598 99.4383 61.802C99.2703 61.994 99.0003 62.09 98.6283 62.09ZM106.82 62.09C106.364 62.09 106.04 61.85 105.848 61.37C105.668 60.89 105.578 60.122 105.578 59.066C105.578 57.506 105.8 56.024 106.244 54.62C106.352 54.272 106.526 54.02 106.766 53.864C107.018 53.696 107.366 53.612 107.81 53.612C108.05 53.612 108.218 53.642 108.314 53.702C108.41 53.762 108.458 53.876 108.458 54.044C108.458 54.236 108.368 54.668 108.188 55.34C108.068 55.82 107.972 56.24 107.9 56.6C107.828 56.96 107.768 57.404 107.72 57.932C108.116 56.9 108.56 56.06 109.052 55.412C109.544 54.764 110.024 54.302 110.492 54.026C110.972 53.75 111.41 53.612 111.806 53.612C112.586 53.612 112.976 54.002 112.976 54.782C112.976 54.938 112.922 55.316 112.814 55.916C112.718 56.396 112.67 56.696 112.67 56.816C112.67 57.236 112.82 57.446 113.12 57.446C113.456 57.446 113.888 57.182 114.416 56.654C114.572 56.498 114.734 56.42 114.902 56.42C115.058 56.42 115.178 56.492 115.262 56.636C115.358 56.768 115.406 56.948 115.406 57.176C115.406 57.62 115.286 57.968 115.046 58.22C114.71 58.568 114.314 58.868 113.858 59.12C113.414 59.36 112.94 59.48 112.436 59.48C111.8 59.48 111.314 59.318 110.978 58.994C110.654 58.67 110.492 58.232 110.492 57.68C110.492 57.5 110.51 57.32 110.546 57.14C110.57 56.9 110.582 56.738 110.582 56.654C110.582 56.462 110.516 56.366 110.384 56.366C110.204 56.366 109.964 56.57 109.664 56.978C109.376 57.374 109.088 57.902 108.8 58.562C108.512 59.222 108.278 59.918 108.098 60.65C107.966 61.214 107.81 61.598 107.63 61.802C107.462 61.994 107.192 62.09 106.82 62.09ZM120.033 53.612C120.309 53.612 120.501 53.648 120.609 53.72C120.717 53.792 120.771 53.912 120.771 54.08C120.771 54.368 120.615 55.394 120.303 57.158C120.027 58.85 119.865 59.852 119.817 60.164C119.373 63.248 118.761 65.69 117.981 67.49C117.201 69.29 116.163 70.19 114.867 70.19C114.255 70.19 113.757 69.998 113.373 69.614C112.989 69.242 112.797 68.75 112.797 68.138C112.797 67.574 112.923 66.998 113.175 66.41C113.439 65.822 113.919 65.144 114.615 64.376C115.323 63.62 116.319 62.75 117.603 61.766L117.657 61.352C117.741 60.908 117.837 60.272 117.945 59.444C117.705 60.308 117.369 60.968 116.937 61.424C116.505 61.868 116.049 62.09 115.569 62.09C115.029 62.09 114.585 61.844 114.237 61.352C113.901 60.848 113.733 60.224 113.733 59.48C113.733 58.58 113.793 57.758 113.913 57.014C114.033 56.258 114.231 55.46 114.507 54.62C114.627 54.26 114.795 54.002 115.011 53.846C115.227 53.69 115.569 53.612 116.037 53.612C116.301 53.612 116.481 53.654 116.577 53.738C116.685 53.822 116.739 53.948 116.739 54.116C116.739 54.212 116.673 54.536 116.541 55.088C116.421 55.532 116.325 55.934 116.253 56.294C116.157 56.786 116.073 57.26 116.001 57.716C115.929 58.16 115.893 58.526 115.893 58.814C115.893 59.27 116.019 59.498 116.271 59.498C116.451 59.498 116.673 59.318 116.937 58.958C117.213 58.598 117.501 58.052 117.801 57.32C118.113 56.588 118.413 55.688 118.701 54.62C118.797 54.26 118.941 54.002 119.133 53.846C119.337 53.69 119.637 53.612 120.033 53.612ZM115.065 68.444C115.365 68.444 115.701 68.096 116.073 67.4C116.445 66.704 116.817 65.546 117.189 63.926C116.265 64.706 115.593 65.414 115.173 66.05C114.765 66.698 114.561 67.262 114.561 67.742C114.561 67.946 114.597 68.114 114.669 68.246C114.753 68.378 114.885 68.444 115.065 68.444Z" fill="#140018"/>
</svg>
