<svg width="102" height="65" viewBox="0 0 102 65" fill="none" xmlns="http://www.w3.org/2000/svg">
<g clip-path="url(#clip0_334_93)">
<g filter="url(#filter0_d_334_93)">
<path d="M33.5652 50.8754C33.0006 50.4703 32.2365 50.3162 31.5717 50.5522C31.2283 50.6714 30.9189 50.8711 30.6694 51.1344C30.4199 51.3977 30.2378 51.7169 30.1383 52.065C29.9513 52.6856 29.6069 53.324 29.7831 53.9874C29.9477 54.9784 30.8944 55.7682 31.9036 55.7486C32.6221 55.7789 33.3227 55.3889 33.7226 54.803C33.915 54.5332 34.0018 54.2091 34.1136 53.9037C34.2523 53.5181 34.3982 53.1299 34.4411 52.7203C34.451 52.0178 34.1432 51.2957 33.5652 50.8754ZM39.7066 53.0881C39.4776 51.8736 38.0711 51.0517 36.8972 51.4764C36.2458 51.6812 35.7233 52.2226 35.5032 52.8575C35.1936 53.7514 34.8921 54.6472 34.5861 55.5412C34.417 56.0336 34.4223 56.5901 34.6389 57.0673C34.9681 57.9025 35.87 58.4448 36.7621 58.411C37.6094 58.3513 38.4093 57.7797 38.692 56.9747C39.0096 56.0763 39.2986 55.1681 39.6243 54.2723C39.7675 53.8948 39.7567 53.4816 39.7066 53.0881ZM45.0169 54.7647C45.0706 53.9162 44.5946 53.0507 43.8233 52.6723C43.3661 52.4203 42.8212 52.414 42.3166 52.4942C41.5766 52.6562 40.9736 53.2573 40.7499 53.9705C40.2515 55.4023 39.7612 56.8367 39.2646 58.2694C39.0275 58.9114 39.0964 59.6611 39.4749 60.2345C39.6787 60.5409 39.9566 60.7914 40.283 60.9632C40.6094 61.1349 40.9739 61.2224 41.3431 61.2175C42.2092 61.2166 43.0458 60.6352 43.3312 59.816C43.792 58.5588 44.1929 57.2792 44.651 56.0202C44.7879 55.6062 44.9659 55.2001 45.0169 54.7647ZM48.5645 55.2963C48.1145 55.047 47.5776 55.0096 47.0793 55.0942C46.7351 55.1699 46.4141 55.3267 46.1435 55.5516C45.8729 55.7764 45.6605 56.0626 45.5242 56.3862C45.0478 57.7511 44.576 59.1176 44.1087 60.4856C43.9817 60.8605 43.8242 61.2371 43.8242 61.6387C43.8001 62.5291 44.4013 63.3928 45.2424 63.6911C46.3134 64.1345 47.6573 63.5157 48.0375 62.4303C48.5636 60.9157 49.0844 59.3993 49.6105 57.8856C49.9541 56.9186 49.4745 55.762 48.5645 55.2963Z" fill="#041632"/>
</g>
<g filter="url(#filter1_d_334_93)">
<path d="M69.3568 53.0138C63.9401 48.7639 58.5189 44.5202 53.1075 40.2649C52.7183 39.9782 52.3738 39.6247 51.947 39.3932C51.4397 39.1528 50.9476 39.5134 50.4868 39.6924C47.8151 40.8143 45.1444 41.9433 42.47 43.059C41.1986 43.6556 39.6328 43.6734 38.3873 43.0029C37.4514 42.5248 36.6819 41.6664 36.4502 40.6291C36.3446 39.9657 36.3813 39.2427 36.7607 38.6657C37.115 38.0638 37.693 37.7139 38.2549 37.3283C38.8839 36.8974 39.503 36.4513 40.1231 36.007C40.6054 35.6624 41.0858 35.3151 41.5645 34.9652C42.4601 34.3134 43.3486 33.6518 44.2371 32.992C44.9126 32.4898 43.4113 32.3901 43.116 32.3901C42.58 32.391 42.0888 32.6314 41.5797 32.7703L40.7136 33.0481L35.2459 25.0068C34.4004 23.764 33.3318 22.6869 32.0937 21.8298L0.652657 0.0762162C0.586762 0.030688 0.509024 0.00513331 0.428843 0.0026426C0.348663 0.000151888 0.269475 0.0208318 0.200855 0.0621815C0.132235 0.103531 0.0771222 0.16378 0.0421819 0.235641C0.00724166 0.307502 -0.00602978 0.387898 0.00397253 0.467106L0.892447 7.37758C1.00982 8.29212 1.48583 9.12336 2.21666 9.68998L15.3174 19.8398C15.4579 19.9484 15.3093 20.163 15.1572 20.0722L2.66492 12.5776C2.60362 12.5404 2.53271 12.522 2.46098 12.5245C2.38924 12.5271 2.31983 12.5505 2.26135 12.5919C2.20287 12.6333 2.15789 12.6909 2.13197 12.7575C2.10605 12.8242 2.10035 12.8969 2.11555 12.9667L3.84776 21.1522C3.92972 21.5389 4.08742 21.9058 4.31187 22.2318C4.53632 22.5578 4.82311 22.8367 5.15587 23.0524L20.3252 32.8647C20.4272 32.9315 20.3422 33.0873 20.2304 33.0374L7.39987 27.2676C7.35871 27.2487 7.31259 27.2433 7.26813 27.252C7.22367 27.2608 7.18315 27.2834 7.15236 27.3165C7.12158 27.3496 7.10211 27.3916 7.09674 27.4364C7.09138 27.4812 7.1004 27.5265 7.1225 27.5659L15.6538 42.9593C16.308 44.1411 17.2868 45.1131 18.4758 45.7614L27.4858 50.6774L28.3859 51.1929C28.6892 51.3621 28.9765 51.5704 29.3111 51.6728C29.4516 51.7485 29.4856 51.5411 29.5384 51.4609C29.7948 50.8404 30.2618 50.329 30.8581 50.0158C31.7958 49.4994 33.0216 49.5537 33.9065 50.1547C34.5089 50.5558 34.9448 51.1606 35.1331 51.8572C35.4311 51.4974 35.763 51.1502 36.1889 50.9409C37.1687 50.4013 38.4544 50.4957 39.3483 51.1653C39.9128 51.558 40.2484 52.1822 40.4801 52.8126C40.9051 52.2739 41.5117 51.8696 42.1864 51.72C43.4837 51.4031 44.9654 52.1029 45.5103 53.3237C45.6848 53.7448 46.1348 53.9327 46.4516 54.2301C46.6851 54.4857 47.0331 54.2809 47.3204 54.2702C47.8165 54.2341 48.3138 54.3218 48.7673 54.5251C49.2208 54.7285 49.6162 55.0411 49.9178 55.4348C50.3634 56.0091 50.5423 56.7437 50.5351 57.4587C52.2065 58.757 53.8582 60.0819 55.5305 61.3801C56.2874 61.9865 57.4873 61.9758 58.2102 61.3222C58.6647 60.9064 58.9985 60.3205 58.9851 59.6937C59.0262 59.0374 58.6951 58.3963 58.1834 57.9939C54.8621 55.3796 51.5462 52.7583 48.2267 50.1422C47.9968 49.9784 47.8295 49.657 47.9941 49.3916C48.1373 49.0693 48.5954 49.0363 48.8477 49.2465C52.9152 52.4555 56.9996 55.6414 61.0787 58.8344C61.8232 59.4622 63.0105 59.4684 63.7558 58.8433C64.2354 58.4328 64.5995 57.8291 64.5816 57.1845C64.6219 56.5078 64.2604 55.8524 63.7307 55.4455C59.6758 52.2623 55.6029 49.0978 51.5578 45.9012C51.2089 45.6964 51.1767 45.1239 51.5713 44.952C51.8084 44.7918 52.075 44.9467 52.2736 45.0954C57.0157 48.8387 61.7874 52.5481 66.5331 56.2887C66.8641 56.555 67.2578 56.75 67.6837 56.7998C68.9426 57.002 70.1988 55.8382 70.1039 54.5765C70.1156 53.9746 69.8114 53.3958 69.3568 53.0138ZM50.2157 58.6065C49.7048 60.0409 49.1796 61.4745 48.7224 62.9267C48.7108 62.9633 49.4337 63.4868 49.5098 63.5411C49.7397 63.7059 49.984 63.8136 50.2596 63.8875C50.8286 64.0415 51.4961 64.0522 52.0088 63.7263C52.6244 63.3363 53.0377 62.6472 53.0574 61.9179C53.0625 61.5986 52.9949 61.2822 52.8598 60.9925C52.7247 60.7028 52.5255 60.4472 52.2772 60.2448C51.598 59.6889 50.9108 59.1427 50.2157 58.6065Z" fill="#041632"/>
</g>
<g filter="url(#filter2_d_334_93)">
<path d="M100.27 0.647997L69.4565 21.8629C68.309 22.6524 67.3482 23.6813 66.6408 24.8779L61.7761 33.099C59.7435 32.1174 57.71 31.1373 55.6758 30.1589C55.3027 29.9728 54.8598 29.9336 54.4697 30.0921C52.1622 30.832 49.8591 31.5853 47.5507 32.3235C46.9503 32.53 46.3151 32.6876 45.7934 33.0652C43.2828 34.9092 40.7963 36.7889 38.2132 38.5332C37.799 38.8324 37.459 39.274 37.3766 39.7869C37.2934 40.3799 37.5475 40.9711 37.9323 41.4146C38.6651 42.2578 39.8524 42.6629 40.9538 42.4893C41.7143 42.3798 42.3908 41.9951 43.0976 41.7227C45.9017 40.5437 48.7058 39.3648 51.5054 38.1788C51.8159 38.0355 52.1908 38.0987 52.4601 38.2999C58.4047 43.0173 64.3664 47.7142 70.3083 52.4343C70.5821 52.6792 71.0071 52.7263 71.3015 52.4886L83.6972 44.0172C84.7102 43.3254 85.5582 42.4205 86.181 41.3665L93.1089 29.6585C93.5921 28.842 92.7537 27.8812 91.8733 28.2445L81.6267 32.4731C81.4612 32.5407 81.3413 32.3119 81.4916 32.2166L96.0007 22.9644C96.7298 22.4992 97.3458 21.8786 97.8044 21.1475C98.2629 20.4163 98.5523 19.5928 98.6518 18.7367L99.2924 13.2117C99.3023 13.1286 99.2886 13.0445 99.253 12.9687C99.2173 12.893 99.1611 12.8286 99.0907 12.783C99.0203 12.7373 98.9384 12.7122 98.8544 12.7104C98.7703 12.7086 98.6875 12.7302 98.6151 12.7727L85.2961 20.5433C85.1914 20.6039 85.0912 20.4579 85.1878 20.384L98.8442 9.86197C99.8804 9.06364 100.57 7.90064 100.771 6.61197L101.574 1.46183C101.688 0.737928 100.876 0.231285 100.27 0.647997Z" fill="#107AD1"/>
</g>
</g>
<defs>
<filter id="filter0_d_334_93" x="25.7344" y="50.4409" width="27.9875" height="21.395" filterUnits="userSpaceOnUse" color-interpolation-filters="sRGB">
<feFlood flood-opacity="0" result="BackgroundImageFix"/>
<feColorMatrix in="SourceAlpha" type="matrix" values="0 0 0 0 0 0 0 0 0 0 0 0 0 0 0 0 0 0 127 0" result="hardAlpha"/>
<feOffset dy="4"/>
<feGaussianBlur stdDeviation="2"/>
<feComposite in2="hardAlpha" operator="out"/>
<feColorMatrix type="matrix" values="0 0 0 0 0 0 0 0 0 0 0 0 0 0 0 0 0 0 0.25 0"/>
<feBlend mode="normal" in2="BackgroundImageFix" result="effect1_dropShadow_334_93"/>
<feBlend mode="normal" in="SourceGraphic" in2="effect1_dropShadow_334_93" result="shape"/>
</filter>
<filter id="filter1_d_334_93" x="-3.99927" y="0.00244141" width="78.1082" height="71.9888" filterUnits="userSpaceOnUse" color-interpolation-filters="sRGB">
<feFlood flood-opacity="0" result="BackgroundImageFix"/>
<feColorMatrix in="SourceAlpha" type="matrix" values="0 0 0 0 0 0 0 0 0 0 0 0 0 0 0 0 0 0 127 0" result="hardAlpha"/>
<feOffset dy="4"/>
<feGaussianBlur stdDeviation="2"/>
<feComposite in2="hardAlpha" operator="out"/>
<feColorMatrix type="matrix" values="0 0 0 0 0 0 0 0 0 0 0 0 0 0 0 0 0 0 0.25 0"/>
<feBlend mode="normal" in2="BackgroundImageFix" result="effect1_dropShadow_334_93"/>
<feBlend mode="normal" in="SourceGraphic" in2="effect1_dropShadow_334_93" result="shape"/>
</filter>
<filter id="filter2_d_334_93" x="33.3608" y="0.497559" width="72.2239" height="60.147" filterUnits="userSpaceOnUse" color-interpolation-filters="sRGB">
<feFlood flood-opacity="0" result="BackgroundImageFix"/>
<feColorMatrix in="SourceAlpha" type="matrix" values="0 0 0 0 0 0 0 0 0 0 0 0 0 0 0 0 0 0 127 0" result="hardAlpha"/>
<feOffset dy="4"/>
<feGaussianBlur stdDeviation="2"/>
<feComposite in2="hardAlpha" operator="out"/>
<feColorMatrix type="matrix" values="0 0 0 0 0 0 0 0 0 0 0 0 0 0 0 0 0 0 0.25 0"/>
<feBlend mode="normal" in2="BackgroundImageFix" result="effect1_dropShadow_334_93"/>
<feBlend mode="normal" in="SourceGraphic" in2="effect1_dropShadow_334_93" result="shape"/>
</filter>
<clipPath id="clip0_334_93">
<rect width="102" height="65" fill="white"/>
</clipPath>
</defs>
</svg>
