<svg width="215" height="29" viewBox="0 0 215 29" fill="none" xmlns="http://www.w3.org/2000/svg">
<path d="M9.85172 28.3613C6.98518 28.3613 4.64859 27.4821 2.84195 25.7236C1.04735 23.9652 0.150055 21.6226 0.150055 18.6958V18.1899C0.150055 16.2267 0.529449 14.4743 1.28824 12.9326C2.04703 11.3789 3.11897 10.1865 4.50406 9.35547C5.90119 8.51237 7.49104 8.09082 9.27359 8.09082C11.9474 8.09082 14.0491 8.93392 15.5788 10.6201C17.1204 12.3063 17.8913 14.6971 17.8913 17.7925V19.9243H5.44351C5.61213 21.201 6.11799 22.2248 6.96109 22.9956C7.81623 23.7664 8.8942 24.1519 10.195 24.1519C12.2064 24.1519 13.7781 23.4232 14.9103 21.9658L17.4757 24.8384C16.6929 25.9465 15.633 26.8136 14.2961 27.4399C12.9591 28.0542 11.4777 28.3613 9.85172 28.3613ZM9.25552 12.3184C8.21972 12.3184 7.37662 12.6676 6.72623 13.3662C6.08788 14.0648 5.67838 15.0645 5.49771 16.3652H12.7604V15.9497C12.7363 14.7935 12.4232 13.9022 11.821 13.2759C11.2187 12.6375 10.3636 12.3184 9.25552 12.3184ZM30.4821 24.1519C31.4456 24.1519 32.2285 23.8869 32.8307 23.3569C33.433 22.827 33.7461 22.1224 33.7702 21.2432H38.6662C38.6541 22.568 38.2928 23.7845 37.5822 24.8926C36.8716 25.9886 35.896 26.8438 34.6554 27.458C33.4269 28.0602 32.0659 28.3613 30.5724 28.3613C27.7782 28.3613 25.5741 27.4761 23.9601 25.7056C22.3462 23.923 21.5392 21.466 21.5392 18.3345V17.9912C21.5392 14.9801 22.3402 12.5773 23.9421 10.7827C25.544 8.98812 27.742 8.09082 30.5363 8.09082C32.9813 8.09082 34.9385 8.78939 36.4079 10.1865C37.8893 11.5716 38.6421 13.4204 38.6662 15.7329H33.7702C33.7461 14.7212 33.433 13.9022 32.8307 13.2759C32.2285 12.6375 31.4336 12.3184 30.446 12.3184C29.2295 12.3184 28.3081 12.764 27.6818 13.6553C27.0676 14.5345 26.7604 15.9678 26.7604 17.9551V18.4971C26.7604 20.5085 27.0676 21.9538 27.6818 22.833C28.2961 23.7122 29.2295 24.1519 30.4821 24.1519ZM42.3142 18.0454C42.3142 16.1063 42.6875 14.3779 43.4343 12.8604C44.181 11.3428 45.253 10.1685 46.6501 9.3374C48.0593 8.50635 49.6913 8.09082 51.5461 8.09082C54.1838 8.09082 56.3337 8.89779 57.9958 10.5117C59.6699 12.1257 60.6034 14.3177 60.7961 17.0879L60.8322 18.4248C60.8322 21.4238 59.9951 23.8327 58.321 25.6514C56.6468 27.458 54.4006 28.3613 51.5822 28.3613C48.7639 28.3613 46.5116 27.458 44.8254 25.6514C43.1512 23.8447 42.3142 21.3877 42.3142 18.2803V18.0454ZM47.5353 18.4248C47.5353 20.2796 47.8846 21.7008 48.5832 22.6885C49.2818 23.6641 50.2814 24.1519 51.5822 24.1519C52.8469 24.1519 53.8345 23.6701 54.5451 22.7065C55.2557 21.731 55.611 20.1772 55.611 18.0454C55.611 16.2267 55.2557 14.8175 54.5451 13.8179C53.8345 12.8182 52.8348 12.3184 51.5461 12.3184C50.2694 12.3184 49.2818 12.8182 48.5832 13.8179C47.8846 14.8055 47.5353 16.3411 47.5353 18.4248ZM70.424 8.45215L70.5866 10.6382C71.9717 8.93994 73.8446 8.09082 76.2053 8.09082C78.7225 8.09082 80.4509 9.08447 81.3904 11.0718C82.7634 9.08447 84.7206 8.09082 87.2619 8.09082C89.3817 8.09082 90.9595 8.7111 91.9953 9.95166C93.0311 11.1802 93.549 13.035 93.549 15.5161V28H88.3098V15.5342C88.3098 14.4261 88.093 13.6191 87.6594 13.1133C87.2258 12.5954 86.461 12.3364 85.365 12.3364C83.7992 12.3364 82.7152 13.0832 82.113 14.5767L82.1311 28H76.9099V15.5522C76.9099 14.4201 76.6871 13.6011 76.2414 13.0952C75.7958 12.5894 75.037 12.3364 73.9651 12.3364C72.4836 12.3364 71.4117 12.9507 70.7492 14.1792V28H65.528V8.45215H70.424ZM103.954 8.45215L104.116 10.6382C105.502 8.93994 107.374 8.09082 109.735 8.09082C112.252 8.09082 113.981 9.08447 114.92 11.0718C116.293 9.08447 118.25 8.09082 120.792 8.09082C122.912 8.09082 124.489 8.7111 125.525 9.95166C126.561 11.1802 127.079 13.035 127.079 15.5161V28H121.84V15.5342C121.84 14.4261 121.623 13.6191 121.189 13.1133C120.756 12.5954 119.991 12.3364 118.895 12.3364C117.329 12.3364 116.245 13.0832 115.643 14.5767L115.661 28H110.44V15.5522C110.44 14.4201 110.217 13.6011 109.771 13.0952C109.326 12.5894 108.567 12.3364 107.495 12.3364C106.013 12.3364 104.941 12.9507 104.279 14.1792V28H99.0578V8.45215H103.954ZM131.775 18.0454C131.775 16.1063 132.148 14.3779 132.895 12.8604C133.642 11.3428 134.713 10.1685 136.111 9.3374C137.52 8.50635 139.152 8.09082 141.007 8.09082C143.644 8.09082 145.794 8.89779 147.456 10.5117C149.13 12.1257 150.064 14.3177 150.257 17.0879L150.293 18.4248C150.293 21.4238 149.456 23.8327 147.781 25.6514C146.107 27.458 143.861 28.3613 141.043 28.3613C138.224 28.3613 135.972 27.458 134.286 25.6514C132.612 23.8447 131.775 21.3877 131.775 18.2803V18.0454ZM136.996 18.4248C136.996 20.2796 137.345 21.7008 138.044 22.6885C138.742 23.6641 139.742 24.1519 141.043 24.1519C142.307 24.1519 143.295 23.6701 144.006 22.7065C144.716 21.731 145.072 20.1772 145.072 18.0454C145.072 16.2267 144.716 14.8175 144.006 13.8179C143.295 12.8182 142.295 12.3184 141.007 12.3184C139.73 12.3184 138.742 12.8182 138.044 13.8179C137.345 14.8055 136.996 16.3411 136.996 18.4248ZM154.176 18.0815C154.176 15.0343 154.856 12.6074 156.217 10.8008C157.59 8.99414 159.463 8.09082 161.836 8.09082C163.739 8.09082 165.31 8.80143 166.551 10.2227V0.25H171.79V28H167.075L166.822 25.9224C165.521 27.5483 163.847 28.3613 161.8 28.3613C159.499 28.3613 157.65 27.458 156.253 25.6514C154.868 23.8327 154.176 21.3094 154.176 18.0815ZM159.397 18.4609C159.397 20.2917 159.716 21.6948 160.354 22.6704C160.993 23.646 161.92 24.1338 163.137 24.1338C164.75 24.1338 165.889 23.4533 166.551 22.0923V14.3779C165.901 13.0169 164.775 12.3364 163.173 12.3364C160.655 12.3364 159.397 14.3779 159.397 18.4609ZM188.645 28C188.404 27.5303 188.229 26.9461 188.121 26.2476C186.856 27.6567 185.212 28.3613 183.189 28.3613C181.274 28.3613 179.684 27.8073 178.419 26.6992C177.167 25.5911 176.54 24.194 176.54 22.5078C176.54 20.4362 177.305 18.8464 178.835 17.7383C180.376 16.6302 182.599 16.0701 185.501 16.0581H187.904V14.938C187.904 14.0347 187.669 13.312 187.2 12.77C186.742 12.228 186.013 11.957 185.013 11.957C184.134 11.957 183.442 12.1678 182.936 12.5894C182.442 13.0109 182.195 13.589 182.195 14.3237H176.974C176.974 13.1916 177.323 12.1437 178.022 11.1802C178.72 10.2166 179.708 9.46387 180.985 8.92188C182.261 8.36784 183.695 8.09082 185.284 8.09082C187.693 8.09082 189.602 8.69906 191.012 9.91553C192.433 11.12 193.143 12.8182 193.143 15.0103V23.4834C193.155 25.3382 193.414 26.7414 193.92 27.6929V28H188.645ZM184.327 24.3687C185.098 24.3687 185.808 24.2 186.459 23.8628C187.109 23.5135 187.591 23.0498 187.904 22.4717V19.1113H185.953C183.339 19.1113 181.948 20.0146 181.78 21.8213L181.762 22.1284C181.762 22.7788 181.99 23.3148 182.448 23.7363C182.906 24.1579 183.532 24.3687 184.327 24.3687ZM209.221 22.5981C209.221 21.9598 208.902 21.46 208.263 21.0986C207.637 20.7253 206.625 20.394 205.228 20.105C200.579 19.1294 198.255 17.1541 198.255 14.1792C198.255 12.4448 198.971 10.9995 200.405 9.84326C201.85 8.67497 203.735 8.09082 206.059 8.09082C208.541 8.09082 210.522 8.67497 212.003 9.84326C213.497 11.0116 214.243 12.5291 214.243 14.396H209.022C209.022 13.6493 208.781 13.035 208.3 12.5532C207.818 12.0594 207.065 11.8125 206.041 11.8125C205.162 11.8125 204.482 12.0112 204 12.4087C203.518 12.8062 203.277 13.312 203.277 13.9263C203.277 14.5044 203.548 14.9741 204.09 15.3354C204.644 15.6847 205.572 15.9919 206.872 16.2568C208.173 16.5098 209.269 16.7988 210.16 17.124C212.919 18.1357 214.298 19.8882 214.298 22.3813C214.298 24.1639 213.533 25.6092 212.003 26.7173C210.474 27.8133 208.498 28.3613 206.077 28.3613C204.439 28.3613 202.982 28.0723 201.705 27.4941C200.441 26.904 199.447 26.103 198.724 25.0913C198.002 24.0675 197.64 22.9655 197.64 21.7852H202.591C202.639 22.7126 202.982 23.4232 203.62 23.917C204.259 24.4108 205.114 24.6577 206.186 24.6577C207.186 24.6577 207.938 24.471 208.444 24.0977C208.962 23.7122 209.221 23.2124 209.221 22.5981Z" fill="#D9D9D9"/>
</svg>
